<svg xmlns="http://www.w3.org/2000/svg" viewBox="0 0 476 612"><switch><g><path d="M454.7 371.5c0-5.5-.5-10.8-1.4-15.8-.7-3.8-1.6-7.4-2.8-10.7-2-6.2-4.7-11.9-7.4-16.7 0 0 0-.1-.1-.1-3.7-6.6-7.6-11.8-10.8-15.5-1.9-2.2-4-4.3-6-6.3-20.4-19.3-46.3-26.6-71.5-28 19.6-21.3 31.3-45 38.2-66.7-.2.4-.5.8-.7 1.3 14.3-41.6 7.8-77.4-3.8-104.2-2.4-5.5-4.9-10.6-7.6-15.3 0-.1 0-.1-.1-.2-6.3-11.1-12.9-19.9-18.2-26.2V67c-3.3-3.8-6.7-7.3-10.2-10.6-41-38.8-95.5-49-145.1-47.7h-1.5C138.1 10.3 80.6 33.1 80.6 33.1c-3.8 0-6.9 2.9-7.3 6.6 0 .3-.1.5-.1.8v256.1l-29.4 28-2.1 2c-4.9 4.6-1.6 12.8 5.1 12.8h26.4v236.2c0 3.8.8 7.4 2.2 10.7 4.2 9.9 13.9 16.8 25.3 16.8h11.5c15.2 0 27.5-12.3 27.5-27.5V342.2c41.6 2.7 76.6.2 106.1-6v247.2c.3 13.3 13 22.6 25.5 19.5.9-.2 1.8-.5 2.8-.9l33.5-13.4v-.1l4.6-1.8 31-12.2c6.5-3.8 3.8-13.9-3.8-13.9h-31.9v-84.5c21.4.9 39.8-.6 55.5-4 15.6-3.3 28.5-8.3 39.4-14.5 8.1-4.6 14.9-9.8 20.8-15.4 3.4-3.3 6.5-6.7 9.3-10.2 20.7-22.2 22.4-50 22.2-60.5zM294 265c-4.5 2.3-9.6 3.6-15.1 3.6-5.4 0-10.6-1.3-15.1-3.6-4.8-2.4-8.9-6-12-10.4-3.8-5.4-6.1-12-6.1-19.1 0-7.2 2.3-13.8 6.1-19.2 6-8.5 15.9-14.1 27.1-14.1 18.4 0 33.2 14.9 33.2 33.2.1 13-7.3 24.1-18.1 29.6z" fill="#fe5009"/></g></switch></svg>