<svg xmlns="http://www.w3.org/2000/svg" viewBox="0 0 792 612"  fill="#fe5009" xmlns:v="https://vecta.io/nano"><path d="M178.5 272.2c0 3.4 1.1 6.6 2.9 9.2-2.6-2.2-4.2-5.5-4.2-9.2s1.6-6.9 4.2-9.2c-1.8 2.7-2.9 5.8-2.9 9.2z"/><path d="M178.5 272.2c0-3.4 1.1-6.6 2.9-9.2 2.9-4.1 7.6-6.7 13-6.7a15.88 15.88 0 0 1 15.9 15.9c0 6.2-3.5 11.5-8.7 14.2-2.2 1.1-4.6 1.7-7.2 1.7s-5.1-.6-7.2-1.7c-2.3-1.2-4.3-2.9-5.8-5-1.8-2.6-2.9-5.7-2.9-9.2zm99.9 63.4c0-.3 0-.6-.1-.9-.4-7.2-2.5-13.1-5.9-18-6.5-11.6-19-20.5-38.2-20.5l-7.3.1-4 .1 4.1-4.9c5.4-6.7 15.1-19.2 21.4-30.1 8.3-24 2-43.9-5.5-57.2v-.1c-2.3-3.8-4.5-6.8-5.7-8.4-.3-.4-.6-.8-.9-1.1-.2-.2-.3-.4-.3-.4-2.2-2.6-4.4-5.1-6.8-7.3-19.7-18.6-45.8-23.7-69.4-23.2h-.3c-32.5.7-60.3 11.7-60.3 11.7-1.8 0-3.3 1.4-3.5 3.2v122.9l-14.1 13.4-1 1c-2.3 2.2-.8 6.1 2.5 6.1h12.6v113c0 7.3 5.9 13.1 13.1 13.1h4.9c2 0 3.6-1.6 3.6-3.6V309.3h61v129.4c.2 6.4 6.2 10.8 12.2 9.3l34.4-13.5c3.1-1.8 1.8-6.6-1.8-6.6h-23.2V380h34.2c7.3 0 14-1.3 19.8-3.8a39.2 39.2 0 0 0 8.2-4.8s.1 0 .1-.1c17.3-12.7 16.4-32.8 16.2-35.7z"/><path d="M243.1 204.2c-3-5.4-6.2-9.6-8.8-12.6-1.6-1.8-3.2-3.5-4.9-5.1-19.6-18.6-45.7-23.4-69.4-22.8h-.3c-32.8.9-61.1 12.3-61.1 12.3l18.1 146.4c.2 0 .4 0 .7.1 24.5 2.5 44.5 1.4 61-2h0c12.6-2.7 23-6.7 31.8-11.7a88.13 88.13 0 0 0 16.8-12.4c11.6-11.1 18.2-24 21.9-35.6-.1.2-.2.4-.4.6 8.3-23.9 2.1-43.9-5.4-57.2zm-41.5 82.2c-2.2 1.1-4.6 1.7-7.2 1.7s-5.1-.6-7.2-1.7c-2.3-1.2-4.3-2.9-5.8-5-1.8-2.6-2.9-5.7-2.9-9.2s1.1-6.6 2.9-9.2c2.9-4.1 7.6-6.7 13-6.7a15.88 15.88 0 0 1 15.9 15.9c0 6.2-3.5 11.6-8.7 14.2z"/><path d="M272.9 316.6c-1.8-3.2-3.7-5.7-5.2-7.5-.9-1.1-1.9-2.1-2.9-3-11.6-11-27.1-13.9-41.2-13.5h-.2c-19.5.5-36.2 7.3-36.2 7.3l10.8 86.8h.4c14.5 1.5 26.4.8 36.2-1.2h0c7.5-1.6 13.7-4 18.8-6.9 3.9-2.2 7.1-4.7 9.9-7.3 6.9-6.6 10.8-14.2 13-21.1-.1.1-.1.2-.2.4 5-14.3 1.3-26.1-3.2-34zm-24.6 48.7c-1.3.7-2.7 1-4.3 1-1.5 0-3-.4-4.3-1-1.4-.7-2.5-1.7-3.4-3-1.1-1.5-1.7-3.4-1.7-5.4s.6-3.9 1.7-5.4c1.7-2.4 4.5-4 7.7-4a9.39 9.39 0 0 1 9.4 9.4c.1 3.7-2 6.9-5.1 8.4zm-120.6-78.9v148.7c0 7.3-5.9 13.1-13.1 13.1h-5.5c-7.3 0-13.1-5.9-13.1-13.1V286.4h31.7z"/><path d="M208.1 286.4h-6.5c-2.2 1.1-4.6 1.7-7.2 1.7s-5.1-.6-7.2-1.7h-8.7v152.4c.2 6.4 6.2 10.8 12.2 9.3.4-.1.9-.2 1.3-.4l16.1-6.4V286.4zM338 236.8c0-1.7-.1-3-.4-3.8s-.4-1.5-.4-2.2c0-.9.5-1.7 1.4-2.3 1-.6 2.1-.9 3.4-.9 3.1 0 5.5.8 7.4 2.4s2.8 3.5 2.8 5.8v60.3c2.1-.2 4.5-.8 7.2-1.8s5.4-2.3 8.2-4 5.6-3.8 8.2-6.4c2.7-2.5 5.1-5.5 7.2-8.8 2.1-3.4 3.8-7.2 5.1-11.4s1.9-8.9 1.9-14.1c0-3.5-.6-7.1-1.7-10.8s-2.9-7.1-5.3-10.2-5.5-5.6-9.3-7.6-8.4-3-13.8-3c-7.4 0-13.7 1.1-19 3.4s-9.6 5.3-12.9 9.2c-3.3 3.8-5.8 8.3-7.3 13.4-1.6 5.1-2.3 10.4-2.3 16.1 0 4.1.3 7.5 1 10.3s1.5 5.1 2.3 6.8c.8 1.8 1.6 3.1 2.3 3.9s1.1 1.3 1.3 1.4c1-.3 1.7-.2 2.2.4.4.5.6 1.3.6 2.2 0 .8-.3 2.1-.9 3.8s-1.3 3.3-2.3 4.7c-1 1.5-2.1 2.6-3.3 3.3-1.3.8-2.6.6-3.9-.4-.7-.7-1.8-1.9-3.3-3.6s-3-4.1-4.5-7-2.8-6.4-3.9-10.5-1.7-8.9-1.7-14.3c0-8.7 1.4-16.5 4.1-23.5s6.5-13 11.4-18 10.7-8.8 17.5-11.5 14.3-4.1 22.5-4.1c6.7 0 12.8 1.1 18.3 3.3s10.2 5.3 14.1 9.3 6.9 8.8 9 14.3 3.2 11.6 3.2 18.1c0 8.1-1.4 15.5-4.3 22.3s-6.7 12.9-11.5 18.2-10.4 9.7-16.6 13.2c-6.3 3.5-12.8 5.9-19.6 7.1v24.3c0 1.6-.5 2.7-1.5 3.3s-2.2.9-3.6.9c-1.1 0-2.2-.1-3.2-.5-1.1-.3-2.1-.7-2.9-1.2-.9-.5-1.6-1-2.2-1.7-.6-.6-.9-1.3-.9-2v-96.1zm84.8 8c-1.5 0-2.9-.3-4.3-.9s-2.5-1.4-3.5-2.4-1.8-2.2-2.4-3.6a10.82 10.82 0 0 1-.9-4.4c0-1.6.3-3.1.9-4.5s1.4-2.6 2.4-3.6 2.2-1.8 3.5-2.3c1.4-.6 2.8-.9 4.3-.9 1.6 0 3.1.3 4.5.9a13.07 13.07 0 0 1 3.6 2.3c1 1 1.8 2.2 2.3 3.6.6 1.4.9 2.9.9 4.5a10.82 10.82 0 0 1-.9 4.4c-.6 1.4-1.4 2.5-2.3 3.6-1 1-2.2 1.8-3.6 2.4s-2.9.9-4.5.9zM427 318c0 .4 0 1.1.1 2s.2 1.9.5 2.8c.3 1 .8 1.8 1.4 2.5.7.7 1.6 1.1 2.8 1.1 1.8 0 3.4-.7 4.7-2 1.4-1.3 2.5-3 3.5-5s1.8-4.1 2.5-6.4 1.2-4.5 1.6-6.5c.4-1.9.9-3.2 1.7-4.1.8-.8 1.6-1.3 2.4-1.4.9-.1 1.7.1 2.6.7a6.59 6.59 0 0 1 2.3 2.1c.7.9 1.2 1.8 1.5 2.9s.4 2.1.1 3.1c-.8 3.1-1.9 6.3-3.3 9.6-1.4 3.4-3.1 6.5-5.2 9.3s-4.6 5.2-7.6 7c-2.9 1.9-6.4 2.8-10.4 2.8-2.5 0-4.7-.5-6.6-1.4s-3.5-2.2-4.9-3.7c-1.3-1.6-2.3-3.4-3-5.5s-1-4.3-1-6.7v-49.3c0-1.7-.1-3-.4-3.8s-.4-1.5-.4-2.2c0-.9.5-1.6 1.4-2.2 1-.6 2.1-.9 3.4-.9 3.1 0 5.5.8 7.3 2.4s2.7 3.5 2.7 5.7V318z"/><path d="M467.8 340.6c-2.3 0-4.1-.3-5.6-.8-1.4-.5-2.6-1.2-3.3-2v60c0 1.7-.3 3-1 4.1-.7 1-1.5 1.9-2.5 2.5a9.58 9.58 0 0 1-3.2 1.2c-1.1.2-2.2.3-3.1.3-1.9 0-3-.5-3.5-1.4-.5-1-.7-2.1-.7-3.5V272.1c0-1.3-.1-2.4-.3-3.2s-.4-1.4-.6-1.8c-.2-.5-.4-.8-.6-1.1s-.3-.6-.3-.9.2-.6.5-.8c.4-.2.8-.5 1.4-.6.6-.2 1.2-.3 1.9-.4s1.4-.1 2-.1c2.9 0 5.3.8 7.1 2.4s2.7 3.4 2.8 5.5c1.9-2.8 4.2-5.2 6.9-7 2.7-1.9 6-2.8 9.9-2.8 3.6 0 6.7.8 9.4 2.5s4.9 4 6.7 6.9 3.1 6.4 4 10.3c.9 4 1.3 8.2 1.3 12.8 0 5.2-.5 10.1-1.4 14.8s-2 8.8-3.4 12.1c3.1-.2 5.6-.6 7.6-1.3s3.7-1.6 5-2.7c1.4-1.2 2.5-2.6 3.5-4.3s2-3.6 3.1-5.8c.8-1.7 1.5-3 2.1-3.8s1.3-1.2 2.1-1.2 1.6.2 2.4.7 1.5 1.1 2.2 1.8c.6.7 1.1 1.5 1.5 2.3s.6 1.5.6 2.2c0 2.1-.7 4.5-2.2 7.2-1.4 2.7-3.7 5.3-6.6 7.7-3 2.4-6.7 4.4-11.3 6.1-4.5 1.7-9.9 2.5-16 2.5-2.5 2.7-5.4 4.8-8.7 6.3-3.1 1.4-6.4 2.2-9.7 2.2zm3.3-67.1c-1.3 0-2.6.4-3.8 1.2s-2.4 1.8-3.5 3.2-2 3-2.8 4.9-1.5 4-2 6.2v39.9c1.3-1.9 3.5-3.4 6.5-4.4s6.6-1.7 10.9-2.1c1.1-1.6 2-3.6 2.8-5.8.8-2.3 1.5-4.6 2-7s.9-4.7 1.2-7 .4-4.3.4-6c0-4.2-.3-7.8-.9-10.7s-1.5-5.3-2.6-7.2c-1.1-1.8-2.3-3.2-3.7-4-1.5-.8-2.9-1.2-4.5-1.2z"/><path d="M579.1 303.1c.1-.7.5-1.3 1.2-1.8s1.5-.8 2.4-1 1.8-.2 2.8 0 1.9.6 2.6 1.2c.8.6 1.3 1.5 1.6 2.6s.3 2.5-.1 4.3c-.5 2.5-1.4 4.9-2.7 7.1-1.2 2.2-2.8 4.1-4.6 5.8-1.9 1.7-4.1 3-6.6 4s-5.3 1.4-8.5 1.4c-1.7 0-3.3-.1-4.7-.3-1.5-.2-2.9-.5-4.3-1-2.3 4-5.2 7.2-8.8 9.6s-8.1 3.7-13.3 3.7c-4.7 0-8.7-.9-12.1-2.7s-6.2-4.3-8.4-7.5-3.9-6.8-4.9-11c-1.1-4.1-1.6-8.5-1.6-13.2 0-6.8.8-12.9 2.4-18.3s3.4-9.9 5.5-13.7 4.2-6.6 6.3-8.6 3.6-3 4.6-3c1.2 0 2.3.5 3.3 1.6s1.7 2.3 2.2 3.7.6 2.8.4 4.3c-.2 1.4-.9 2.6-2.1 3.3l-2.6 4c-1 1.5-1.9 3.4-2.8 5.6-.9 2.3-1.6 5-2.2 8.2s-.9 7.2-.9 11.7c0 3.9.3 7.3 1 10.2s1.7 5.3 2.9 7.3 2.6 3.4 4.2 4.4 3.3 1.4 5.1 1.4c2.6 0 4.8-.6 6.5-1.9s3.2-3 4.4-5.1c-4.3-3.7-7.6-8.5-9.9-14.2s-3.4-11.9-3.4-18.6c0-2.9.3-5.6.9-8.2a23.77 23.77 0 0 1 2.8-6.9c1.2-2 2.8-3.6 4.6-4.7 1.9-1.2 4-1.8 6.5-1.8 2.2 0 4.2.8 6.1 2.3 1.9 1.6 3.6 3.7 5 6.5s2.6 6 3.4 9.8 1.2 7.9 1.2 12.3c0 3.4-.2 6.8-.6 10.2s-1.1 6.6-2 9.7c.7.2 1.3.4 1.8.4h1.8c2 0 3.7-.4 5.3-1.1 1.5-.7 2.8-1.7 3.9-2.9s2-2.6 2.6-4.2c1-1.4 1.5-3.1 1.8-4.9zm-35.3-17.2c0 4.1.6 8.1 1.9 11.8s3 7 5.1 9.7c.4-2.9.5-5.8.5-8.5l-.1-8.7c-.1-2.7-.3-5-.6-6.9s-.8-3.4-1.4-4.6c-.6-1.1-1.3-1.7-2.3-1.7-2 .2-3.1 3.1-3.1 8.9z"/><path d="M619.4 338.7c-2.2 0-4.4-.3-6.6-1-2.3-.7-4.3-1.8-6.1-3.4s-3.3-3.8-4.5-6.4c-1.2-2.7-1.8-6.1-1.8-10.1 0-5.9.8-12.2 2.4-18.9 1.6-6.6 3.9-14 6.9-21.9h-16.2l-.3 6.9c-.2 2.8-.4 5.7-.8 8.8s-.8 6.3-1.4 9.5-1.3 6.1-2.1 8.8c-.6 1.9-1.5 3-2.8 3.3s-2.6.1-3.8-.7a8.25 8.25 0 0 1-3.1-3.3c-.8-1.4-1-2.9-.5-4.5.5-1.9.9-4.1 1.3-6.8s.6-5.5.9-8.5l.5-8.9.3-8c-2.3-1.3-4.2-2.9-5.7-4.8-1.5-2-2.3-4.3-2.3-7 0-1.3.3-2.4.8-3.5.5-1 1.2-2 2-2.7.8-.8 1.8-1.3 3-1.7a10.3 10.3 0 0 1 3.5-.6c1.1 0 2.2.2 3.4.5s2.3.8 3.3 1.6c1.1.8 2 1.8 2.8 3.1s1.5 2.8 2.1 4.7c1.5.2 2.8.3 3.8.4 1.1.1 1.9.2 2.7.2.7.1 1.3.1 1.8.1h11c.5 0 1.3.3 2.4 1a14.77 14.77 0 0 1 3.1 2.6c1 1.1 1.9 2.2 2.6 3.4s.9 2.3.8 3.4c0 .4-.2 1.2-.6 2.6l-1.5 5.2-2 7.3c-.7 2.7-1.4 5.6-2 8.6s-1.1 6.1-1.5 9.3-.6 6.4-.6 9.4c0 1.3.1 2.5.5 3.7.3 1.2.8 2.3 1.4 3.2s1.4 1.7 2.3 2.2 2 .8 3.3.8c2.1 0 3.9-.7 5.4-2s2.8-3 3.8-5 1.8-4.1 2.5-6.4c.6-2.3 1.2-4.5 1.6-6.5.4-1.9 1-3.3 1.8-4.2s1.7-1.3 2.6-1.3c.7 0 1.5.2 2.3.7s1.5 1 2.1 1.8c.6.7 1.1 1.5 1.5 2.4s.6 1.8.6 2.7c0 .3 0 .5-.1.7s-.1.4-.1.5c-.8 3.1-1.9 6.3-3.3 9.6-1.4 3.4-3.1 6.5-5.2 9.3s-4.6 5.2-7.6 7c-3.2 1.8-6.7 2.8-10.6 2.8z"/><path d="M701.4 306.6c.5-1.9 1.2-3.3 1.9-4.2s1.6-1.3 2.5-1.3c.7 0 1.5.2 2.3.7s1.5 1 2.1 1.8c.6.7 1.1 1.5 1.5 2.4s.6 1.8.6 2.7v.7c0 .3-.1.7-.2 1.1-1.6 5.3-3.4 10.1-5.5 14.2s-4.3 7.8-6.7 11-4.8 6.1-7.3 8.7-5 4.9-7.6 7.1v31.9c0 4.9-.6 9-1.7 12.3s-2.6 6-4.4 8.1-3.8 3.6-6.1 4.5-4.6 1.4-6.9 1.4c-2.6 0-5-.6-7.1-1.7-2.2-1.1-4-2.6-5.6-4.6-1.6-1.9-2.8-4.2-3.7-6.8s-1.3-5.3-1.3-8.3c0-4.7.6-8.8 1.8-12.4s2.9-6.9 5-9.9a52.35 52.35 0 0 1 7.3-8.4l8.7-8v-23.4c-2.2 3.7-4.8 6.8-7.8 9.1-2.9 2.4-6.4 3.6-10.4 3.6-3.1 0-5.8-.6-8.2-1.9s-4.5-3.1-6.2-5.4-3-5.1-3.8-8.4c-.9-3.3-1.3-6.9-1.3-11 0-4.9.3-9.8 1-14.7s1.5-9.4 2.3-13.3c1-4.6 2.1-9.1 3.3-13.4.3-.8.5-1.6.7-2.4s.5-1.5 1-2.2 1.4-1.2 2.6-1.6 3-.6 5.5-.6c2.3 0 3.8.4 4.4 1.2.7.8.9 1.8.8 2.8-.1 1.1-.5 2.2-1.1 3.3s-.9 2.1-1.1 2.8l-2.3 9.4c-.7 2.8-1.2 5.7-1.7 8.5-.5 2.9-.8 5.8-1 8.9s-.4 6.6-.4 10.4c0 5 .7 8.9 2.2 11.4 1.5 2.6 3.6 3.9 6.3 3.9 1.9 0 3.6-.7 5.2-2.1s3-3.2 4.3-5.5 2.4-5 3.4-7.9c1-3 1.7-6.1 2.3-9.3v-29.7c0-1.7-.1-3-.4-3.8-.2-.8-.4-1.5-.4-2.2 0-.9.5-1.6 1.4-2.2s2.1-.9 3.4-.9c3.1 0 5.5.8 7.3 2.4s2.7 3.5 2.7 5.7V336c3.4-3.7 6.5-8 9.3-12.7 2.9-4.8 5.2-10.3 7.1-16.7zM666 398c1.4 0 2.5-.6 3.2-1.8s1.2-2.6 1.5-4.2.4-3.2.4-4.8v-23.5c-3 3-5.4 6.4-7.3 10.2-1.8 3.8-2.8 8.4-2.8 14 0 2.9.4 5.3 1.3 7.3 1 1.8 2.2 2.8 3.7 2.8z"/></svg>