<svg xmlns="http://www.w3.org/2000/svg" viewBox="0 0 792 612"><switch><g><path fill="#fe5009" d="M-20.2-27.7h832.4v667.4H-20.2z"/><path d="M599.8 369.2c0-4.9-.5-9.7-1.3-14.1-.1-.5-.2-1-.3-1.4l-.3-1.2c-.5-2.2-1-4.3-1.7-6.4-.1-.3-.2-.7-.3-1l-.3-1c-2-6-4.5-11.5-7.2-16.3 0 0 0-.1-.1-.1-3.6-6.4-7.5-11.6-10.6-15.2-1.9-2.2-3.9-4.2-5.9-6.2-20-18.9-45.5-26.1-70.2-27.5 19.3-20.9 30.7-44.2 37.5-65.4-.2.4-.5.8-.7 1.2 13.8-39.9 7.9-74.4-3-100.5-.3-.6-.5-1.2-.8-1.8-.2-.4-.3-.8-.5-1.1-2.2-4.9-4.5-9.5-6.9-13.8 0 0-.1-.1-.1-.2-6.1-10.9-12.7-19.5-17.9-25.7l-.1-.1c-3.2-3.7-6.6-7.1-10-10.4-40.2-38.1-93.6-48-142.2-46.8h-1.5c-66.3 1.6-122.8 23.9-122.8 23.9-3.8 0-6.8 2.8-7.2 6.5 0 .3-.1.5-.1.8v251.3l-28.9 27.5-2.1 2c-4.8 4.5-1.6 12.6 5 12.6h25.9v231.8c0 3.7.8 7.3 2.1 10.5 4.1 9.7 13.7 16.5 24.8 16.5h11.2c14.9 0 27-12.1 27-27V341.5c40.8 2.6 75.2.2 104.2-5.9v242.5c.2 8.2 5.1 14.8 11.8 17.8 4 1.8 8.6 2.4 13.2 1.3.9-.2 1.8-.5 2.7-.8l32.9-13.1v-.1l4.5-1.8 30.4-12c6.4-3.8 3.8-13.6-3.7-13.6H455V473c21 .8 39.1-.6 54.5-3.9 15.3-3.2 28-8.2 38.6-14.2 7.9-4.5 14.6-9.6 20.4-15.1 3.3-3.2 6.3-6.5 9-9.8 21.6-22.9 22.6-51.4 22.3-60.8zM442.2 265.8c-4.4 2.3-9.5 3.6-14.8 3.6-5.3 0-10.4-1.3-14.8-3.6-4.7-2.4-8.8-5.9-11.8-10.2-3.8-5.3-6-11.8-6-18.8s2.2-13.5 6-18.8c5.9-8.3 15.6-13.8 26.6-13.8 18 0 32.6 14.6 32.6 32.6-.1 12.6-7.3 23.6-17.8 29z" fill="#fff"/></g></switch></svg>