<svg xmlns="http://www.w3.org/2000/svg" viewBox="0 0 792 424"><switch><g><path d="M90.4 86.2c0-3.1-.2-5.4-.7-6.8-.5-1.4-.7-2.7-.7-3.9 0-1.6.9-3 2.6-4 1.7-1.1 3.8-1.6 6.1-1.6 5.5 0 9.9 1.4 13.3 4.3 3.4 2.9 5.1 6.3 5.1 10.4v108.2c3.8-.4 8.1-1.5 12.9-3.2 4.8-1.7 9.7-4.1 14.8-7.2 5.1-3.1 10-6.9 14.8-11.4 4.8-4.5 9.1-9.8 12.9-15.8 3.8-6 6.8-12.9 9.1-20.5s3.5-16 3.5-25.3c0-6.2-1-12.7-3-19.4-2-6.7-5.2-12.8-9.5-18.3s-9.9-10-16.7-13.6c-6.8-3.6-15.1-5.3-24.8-5.3-13.3 0-24.6 2.1-34.1 6.1-9.5 4.1-17.2 9.6-23.2 16.5s-10.4 14.9-13.2 24-4.2 18.7-4.2 28.9c0 7.3.6 13.5 1.9 18.5 1.2 5 2.6 9.1 4.1 12.3 1.5 3.2 2.9 5.5 4.2 7 1.3 1.5 2 2.4 2.3 2.6 1.8-.5 3.1-.3 3.9.6.8 1 1.1 2.3 1.1 3.9 0 1.5-.5 3.8-1.5 6.8s-2.4 5.8-4.1 8.5c-1.7 2.6-3.7 4.6-6 6-2.3 1.3-4.6 1.1-7-.7-1.3-1.2-3.3-3.3-6-6.5-2.7-3.1-5.4-7.3-8-12.5s-5-11.5-7-18.9c-2-7.4-3.1-15.9-3.1-25.6 0-15.5 2.4-29.6 7.3-42.1S49 64.8 57.8 55.8c8.8-8.9 19.3-15.8 31.4-20.7 12.2-4.9 25.7-7.3 40.4-7.3 12.1 0 23 2 32.9 6 9.9 4 18.3 9.6 25.2 16.7 7 7.2 12.3 15.7 16.1 25.6 3.8 9.9 5.7 20.8 5.7 32.5 0 14.4-2.6 27.8-7.8 40-5.2 12.2-12.1 23.1-20.7 32.6s-18.6 17.4-29.8 23.6c-11.3 6.3-23 10.5-35.2 12.8v43.7c0 2.8-.9 4.8-2.8 5.9-1.8 1.1-4 1.7-6.5 1.7-1.9 0-3.9-.3-5.8-.8s-3.7-1.2-5.3-2.1c-1.6-.9-2.9-1.9-3.9-3s-1.5-2.3-1.5-3.6V86.2zM242.5 100.4c-2.7 0-5.3-.5-7.7-1.6-2.4-1.1-4.5-2.5-6.3-4.4-1.8-1.8-3.2-4-4.3-6.4-1.1-2.4-1.6-5-1.6-7.8 0-2.9.5-5.6 1.6-8.1s2.5-4.6 4.3-6.4c1.8-1.8 3.9-3.2 6.3-4.2s5-1.5 7.7-1.5c2.9 0 5.6.5 8.1 1.5s4.6 2.4 6.4 4.2c1.8 1.8 3.2 3.9 4.2 6.4 1 2.5 1.5 5.2 1.5 8.1 0 2.8-.5 5.4-1.5 7.8-1 2.4-2.4 4.6-4.2 6.4-1.8 1.8-3.9 3.3-6.4 4.4-2.4 1.1-5.1 1.6-8.1 1.6zM250.2 231.9c0 .8.1 2 .2 3.6.1 1.7.4 3.4 1 5.1.5 1.7 1.4 3.2 2.6 4.5 1.2 1.3 2.9 1.9 5 1.9 3.2 0 6.1-1.2 8.5-3.6 2.4-2.4 4.5-5.3 6.3-8.9 1.8-3.6 3.3-7.4 4.4-11.6 1.2-4.1 2.2-8.1 2.9-11.7.6-3.3 1.6-5.8 3-7.3 1.3-1.5 2.8-2.3 4.4-2.5 1.6-.2 3.1.2 4.7 1.2s3 2.2 4.2 3.8c1.2 1.6 2.2 3.3 2.7 5.3.6 1.9.7 3.8.2 5.5-1.5 5.5-3.5 11.3-5.9 17.3-2.4 6-5.5 11.6-9.3 16.7-3.8 5.1-8.3 9.3-13.6 12.6-5.3 3.3-11.5 5-18.6 5-4.4 0-8.4-.8-11.8-2.5-3.5-1.7-6.4-3.9-8.7-6.7-2.4-2.8-4.2-6.1-5.4-9.9-1.2-3.8-1.9-7.8-1.9-12v-88.4c0-3.1-.2-5.4-.7-6.8-.5-1.4-.7-2.7-.7-3.9 0-1.6.9-2.9 2.6-4 1.7-1 3.8-1.5 6.1-1.5 5.5 0 9.8 1.4 13 4.3 3.2 2.9 4.8 6.3 4.8 10.3v84.2z"/><path d="M420.3 211.1c-.7-1.5-1.6-2.8-2.8-4.1-1.1-1.3-2.4-2.4-3.9-3.2-1.5-.9-2.9-1.3-4.3-1.3-1.5 0-2.8.7-3.8 2.1-1 1.4-2.3 3.7-3.8 6.8-1.3 2.6-2.5 5-3.8 7.2-.6 1.1-1.2 2.2-1.8 3.2-1.8 3-3.9 5.6-6.3 7.7-2.4 2.1-5.4 3.8-9 4.9-3.6 1.2-8.1 1.9-13.6 2.3 2.5-6 4.5-13.3 6.2-21.8 1.6-8.5 2.4-17.3 2.4-26.6 0-8.2-.8-15.8-2.3-23-1.6-7.1-3.9-13.3-7.1-18.5-3.2-5.2-7.2-9.4-12-12.4s-10.4-4.5-16.9-4.5c-7 0-12.9 1.7-17.8 5-4.8 3.3-9 7.5-12.4 12.6-.2-3.8-1.9-7.1-5.1-9.9s-7.4-4.3-12.7-4.3c-1.2 0-2.4.1-3.6.3-1.2.2-2.4.4-3.5.7-1.1.3-1.9.7-2.6 1.1-.6.4-1 .9-1 1.5s.2 1.2.6 1.7c.4.5.8 1.1 1.1 1.9.4.8.8 1.9 1.1 3.3.4 1.4.6 3.3.6 5.7v231.2c0 2.5.4 4.6 1.3 6.3.9 1.7 3 2.6 6.3 2.6 1.6 0 3.4-.2 5.5-.6 2-.4 4-1.1 5.7-2.2s3.3-2.6 4.4-4.4c1.2-1.9 1.8-4.3 1.8-7.4V267.3c1.4 1.5 3.4 2.7 6 3.6 2.6.9 5.9 1.4 10 1.4 5.8 0 11.7-1.3 17.6-4 5.9-2.6 11.2-6.4 15.7-11.2 11 0 20.6-1.5 28.7-4.4 7.6-2.8 13.9-6.1 19.1-10 .4-.3.8-.6 1.1-.9 5.3-4.3 9.3-8.9 11.9-13.7 2.6-4.9 3.9-9.2 3.9-12.9.2-1.3-.2-2.6-.9-4.1zm-70.8-6.9c-.5 4.1-1.2 8.3-2.2 12.6-1 4.3-2.2 8.5-3.6 12.5s-3.2 7.5-5.1 10.4c-7.6.6-14.2 1.9-19.6 3.7-5.4 1.8-9.3 4.5-11.6 7.9v-71.6c1-4 2.2-7.7 3.6-11.2 1.5-3.5 3.2-6.4 5.1-8.8 2-2.4 4-4.3 6.2-5.7 2.2-1.4 4.5-2.1 6.9-2.1 2.8 0 5.5.7 8 2.2 2.5 1.5 4.8 3.8 6.7 7.1 1.9 3.3 3.5 7.6 4.6 12.8 1.1 5.3 1.7 11.7 1.7 19.2 0 3.3-.2 6.9-.7 11z"/><path d="M542.1 206.9c-.6-2-1.6-3.6-2.9-4.7-1.4-1.1-2.9-1.9-4.7-2.2-1.8-.3-3.5-.3-5.1 0-1.6.3-3 .9-4.3 1.8-.7.5-1.3 1.1-1.7 1.8-.3.5-.4.9-.5 1.5-.5 3.2-1.4 6.3-2.6 9.2-1.2 2.9-2.8 5.4-4.7 7.6-1.9 2.2-4.3 3.9-7 5.2-2.8 1.3-5.9 1.9-9.5 1.9-1.2 0-2.3 0-3.3-.1s-2.1-.3-3.3-.7c1.6-5.6 2.8-11.4 3.5-17.5.8-6 1.1-12.1 1.1-18.3 0-8-.7-15.4-2.2-22.2-1.5-6.8-3.5-12.7-6.1-17.6-2.6-5-5.6-8.8-9.1-11.6-3.5-2.8-7.1-4.2-11-4.2-4.4 0-8.3 1-11.6 3.2-3.4 2.1-6.1 4.9-8.3 8.5-2.2 3.6-3.9 7.7-5 12.4s-1.7 9.6-1.7 14.8c0 12 2 23.1 6.1 33.4 4 10.3 9.9 18.8 17.7 25.5-2.2 3.8-4.8 6.8-7.9 9.1-3.1 2.3-7 3.5-11.7 3.5-3.2 0-6.3-.9-9.1-2.6-2.9-1.7-5.4-4.3-7.6-7.8s-3.9-7.8-5.2-13c-1.2-5.2-1.9-11.3-1.9-18.3 0-8.2.5-15.2 1.6-21 1.1-5.8 2.4-10.8 4-14.8s3.2-7.4 5-10.1c1.8-2.7 3.3-5.1 4.6-7.1 2.2-1.4 3.4-3.4 3.8-6 .4-2.6.2-5.1-.6-7.7-.8-2.5-2.1-4.7-3.9-6.6-1.8-1.9-3.8-2.8-5.9-2.8-1.8 0-4.6 1.8-8.3 5.3s-7.5 8.7-11.2 15.4c-3.8 6.7-7.1 14.9-9.9 24.6-2.9 9.6-4.3 20.6-4.3 32.7 0 3.8.2 7.5.6 11.2.5 4.3 1.2 8.4 2.2 12.4 1.1 4.2 2.5 8.1 4.2 11.7 1.3 2.8 2.9 5.4 4.6 7.9 4 5.7 9 10.1 15 13.4s13.3 4.9 21.7 4.9c9.5 0 17.5-2.2 23.9-6.5 6.5-4.4 11.8-10.1 15.8-17.2 2.5.9 5 1.5 7.7 1.8 2.6.3 5.5.5 8.5.5 5.6 0 10.7-.9 15.2-2.6 4.5-1.7 8.5-4.1 11.8-7.1 3.3-3 6.1-6.5 8.3-10.4 2.2-3.9 3.8-8.2 4.8-12.7.1-.3.1-.5.2-.8.7-2.9.7-5.2.2-7zm-69.8 6.1c-3.8-5-6.8-10.8-9.1-17.5-2.3-6.7-3.5-13.8-3.5-21.2 0-10.5 1.9-15.7 5.7-15.7 1.7 0 3.1 1 4.1 3 1 2 1.8 4.7 2.4 8.2s1 7.6 1.1 12.4c.2 4.8.2 10 .2 15.6.1 4.8-.2 9.9-.9 15.2z"/><path d="M595.2 268.9c-3.9 0-7.8-.6-11.9-1.8s-7.7-3.2-11-6.1c-3.3-2.9-6-6.8-8.1-11.6-2.1-4.8-3.2-10.9-3.2-18.2 0-10.7 1.4-22 4.3-33.9 2.9-11.9 7-25 12.4-39.4h-28.9c-.1 3.2-.3 7.3-.6 12.3-.3 5-.7 10.2-1.4 15.8-.6 5.6-1.5 11.3-2.5 17-1 5.7-2.3 11-3.8 15.8-1.1 3.5-2.8 5.4-5.1 6-2.3.5-4.6.1-6.9-1.2-2.3-1.3-4.1-3.3-5.5-5.9-1.4-2.6-1.7-5.3-1-8.1.9-3.3 1.6-7.4 2.3-12.2.6-4.8 1.2-9.9 1.5-15.2.4-5.3.7-10.7.9-16 .2-5.3.4-10.1.5-14.3-4.1-2.3-7.5-5.1-10.2-8.7-2.7-3.5-4-7.7-4-12.5 0-2.3.5-4.3 1.4-6.2.9-1.9 2.1-3.5 3.6-4.9 1.5-1.3 3.3-2.4 5.3-3.1 2-.7 4.1-1.1 6.3-1.1 1.9 0 4 .3 6.1.8s4.1 1.5 6 2.9c1.9 1.4 3.6 3.2 5.1 5.5 1.5 2.3 2.8 5.1 3.7 8.4 2.7.3 5 .6 6.9.7 1.9.2 3.5.3 4.8.4 1.3.1 2.4.2 3.2.2H585.3c1 0 2.4.6 4.3 1.8 1.9 1.2 3.7 2.7 5.6 4.6 1.8 1.9 3.4 3.9 4.6 6.1 1.2 2.2 1.7 4.2 1.4 6.1 0 .6-.4 2.2-1.1 4.7-.8 2.5-1.7 5.6-2.7 9.4-1.1 3.8-2.3 8.1-3.6 13-1.3 4.9-2.5 10.1-3.6 15.4-1.1 5.4-2 11-2.7 16.7-.8 5.8-1.1 11.4-1.1 16.9 0 2.3.3 4.5.8 6.6.5 2.2 1.3 4.1 2.4 5.7 1.1 1.7 2.5 3 4.1 4 1.7 1 3.6 1.5 5.9 1.5 3.8 0 7-1.2 9.7-3.6 2.7-2.4 5-5.3 6.8-8.9 1.8-3.6 3.3-7.4 4.4-11.6 1.1-4.1 2.1-8.1 2.8-11.7.6-3.4 1.7-6 3.2-7.5 1.5-1.6 3.1-2.3 4.7-2.3 1.3 0 2.6.4 4 1.2 1.4.8 2.7 1.9 3.8 3.2 1.1 1.3 2 2.7 2.7 4.4.7 1.6 1.1 3.2 1.1 4.9 0 .5-.1 1-.2 1.3-.1.3-.2.6-.2 1-1.5 5.5-3.5 11.3-5.9 17.3-2.4 6-5.5 11.6-9.3 16.7-3.8 5.1-8.3 9.3-13.6 12.6-5.1 3.4-11.3 5.1-18.4 5.1z"/><path d="M760.9 210.2c-.7-1.6-1.6-3.1-2.8-4.4-1.1-1.3-2.4-2.3-3.8-3.2-1.4-.8-2.8-1.2-4-1.2-1.7 0-3.2.8-4.5 2.3-1.3 1.6-2.4 4.1-3.4 7.5-3.3 11.4-7.5 21.4-12.6 29.9s-10.6 16.1-16.7 22.8V147.8c0-4-1.6-7.4-4.8-10.3-3.2-2.9-7.5-4.3-13-4.3-2.4 0-4.4.5-6.1 1.5-1.7 1-2.5 2.3-2.5 4 0 1.2.2 2.5.6 3.9.4 1.4.6 3.7.6 6.8v53.4c-1 5.8-2.3 11.4-4 16.7-1.7 5.3-3.8 10.1-6.1 14.2s-4.9 7.5-7.8 9.9c-2.9 2.5-6 3.7-9.3 3.7-4.8 0-8.6-2.3-11.2-7-2.6-4.6-4-11.5-4-20.5 0-6.9.2-13.1.7-18.7.4-5.5 1-10.9 1.9-16s1.8-10.2 3-15.3c1.2-5.1 2.5-10.7 4-16.8.3-1.3 1-3 2-5s1.7-4 1.9-6-.2-3.6-1.4-5.1c-1.2-1.5-3.8-2.2-7.9-2.2-4.4 0-7.7.4-9.8 1.1-2.1.8-3.6 1.7-4.6 2.9-1 1.2-1.6 2.5-1.9 4-.3 1.4-.7 2.9-1.2 4.3-2.3 7.8-4.3 15.8-6 24.1-1.5 7.1-2.9 15.1-4.1 23.9-1.2 8.8-1.9 17.6-1.9 26.4 0 7.2.8 13.8 2.3 19.6 1.6 5.9 3.9 10.9 6.9 15 3 4.2 6.7 7.4 11.1 9.6 4.4 2.3 9.3 3.4 14.8 3.4 7.1 0 13.3-2.1 18.6-6.4 5.3-4.3 9.9-9.7 13.9-16.4v42c-5.5 4.8-10.7 9.6-15.7 14.3s-9.3 9.7-13.1 15.1-6.8 11.3-9 17.8-3.3 13.9-3.3 22.3c0 5.3.8 10.2 2.3 14.9 1.6 4.6 3.8 8.7 6.6 12.1 2.8 3.4 6.2 6.2 10.1 8.2 3.9 2 8.1 3 12.8 3 4.2 0 8.3-.8 12.4-2.4 4.1-1.6 7.8-4.3 11-8s5.8-8.6 7.8-14.5c2-6 3-13.3 3-22.1v-57.2c4.5-3.9 9.1-8.1 13.6-12.7s8.9-9.8 13.2-15.6c4.3-5.8 8.2-12.4 12-19.8 3.7-7.4 7-15.9 9.8-25.5.2-.7.3-1.3.3-1.9v-1.3c.3-1.4 0-3.1-.7-4.7zM688 355.9c0 2.9-.3 5.8-.7 8.7-.5 2.9-1.4 5.4-2.7 7.5-1.3 2.2-3.2 3.2-5.8 3.2-2.7 0-4.8-1.8-6.4-5.3-1.6-3.5-2.3-7.9-2.3-13 0-9.9 1.6-18.3 4.9-25.1 3.3-6.8 7.6-12.9 13-18.3v42.3z"/></g></switch></svg>